<svg viewBox="70 -2 67 68" xmlns="http://www.w3.org/2000/svg">

<path d="M90.4034 21.3402L98.4706 17.1649L102 19.0206L113.092 13.9175L102 7.8866L91.4118 13.4536L94.9412 15.7732L87.3782 19.4845L75.2773 12.9897L102.504 0L128.723 14.3814L101.496 27.3711L90.4034 21.3402Z" fill="#4CAF35"/><path d="M73.2605 46.8557V15.3093L99.9832 29.2268V37.5773L81.3277 27.3711V27.835V33.402L93.4286 39.8969V47.3196L81.3277 40.8247V51.0309L73.2605 46.8557Z" fill="#4CAF35"/>
<path d="M122.168 20.4124L102.504 29.6907V38.0412L118.134 30.6186L120.655 29.6907H122.168L123.681 30.6186V41.2887L122.672 43.1443L121.16 45L110.067 50.567V39.433L101.496 43.6083V63.0928L119.143 54.7423L126.202 51.0309L130.235 46.8557L132.252 41.2887V26.4433L131.244 23.6598L129.227 21.3402L125.697 20.4124H122.168Z" fill="#1A1A1A"/>
</svg>